<svg width="429" height="307" viewBox="0 0 429 307" fill="none" xmlns="http://www.w3.org/2000/svg">
<path fill-rule="evenodd" clip-rule="evenodd" d="M28.9994 -242.518L44.2028 -250.944L150.289 -187.498L167.059 -177.381L174.43 -172.923L183.394 -167.49C192.678 -161.842 202.5 -155.758 212.075 -149.232C213.421 -148.315 214.763 -147.388 216.101 -146.451C221.573 -142.582 226.831 -138.492 231.84 -134.208C236.843 -129.929 241.602 -125.454 246.08 -120.812C254.966 -111.571 263.551 -101.028 272.324 -88.5819C277.704 -80.9497 283.047 -73.0037 288.271 -65.1646L292.164 -59.312C293.645 -57.084 295.126 -54.8551 296.61 -52.63L298.039 -50.4991C306.581 -37.8373 314.545 -27.3897 322.344 -18.6157C331.541 -8.26678 341.537 0.248871 352.074 6.71588L353.183 7.38828C364.13 13.9339 376.773 18.9372 390.762 22.2587C403.022 25.1711 416.485 27.2707 433.13 28.8654L447.667 30.2466C457.298 31.1686 467.084 32.1504 476.607 33.3314C491.827 35.2179 505.281 37.8655 517.736 41.4223C530.229 45.0063 542.71 49.9311 554.829 56.0554C565.451 61.4646 575.843 67.3817 585.618 73.1009L589.315 75.2707C599.548 81.304 609.755 87.3554 619.947 93.3998L726.51 157.115L726.205 174.455L615.318 108.136C610.458 105.251 605.592 102.366 600.722 99.4824L589.27 92.7072L581.532 88.1367L578.947 86.6205C567.429 79.8816 557.398 74.2656 546.824 69.1398C534.532 63.2191 521.672 58.6642 508.604 55.6012C495.976 52.6428 482.077 50.5595 466.109 49.2332C458.874 48.6317 451.493 48.1185 444.214 47.6358L430.416 46.7294L421.753 46.1451C419.71 46.0023 417.706 45.8468 415.737 45.6811C401.94 44.5155 389.935 42.7761 379.189 40.3911C365.658 37.3885 353.444 32.7338 342.87 26.5503L341.831 25.9343C331.142 19.5118 321.05 10.8394 311.833 0.15625C303.643 -9.33658 295.44 -20.6507 286.751 -34.4332C284.838 -37.4664 282.934 -40.5113 281.032 -43.5593L274.508 -54.0254C270.807 -59.9507 267.038 -65.9471 263.266 -71.7804C254.638 -85.1254 246.338 -96.3178 237.893 -105.998C229.133 -116.038 219.196 -125.182 208.359 -133.176C197.636 -141.029 186.323 -148.099 175.695 -154.57C167.582 -159.501 159.471 -164.401 151.374 -169.286L142.533 -174.618L28.9994 -242.518ZM61.4223 -260.497L159.022 -202.126C167.286 -197.146 175.568 -192.156 183.857 -187.142L192.148 -182.119C202.081 -176.088 213.755 -168.901 225.015 -161.323C236.177 -153.77 246.525 -145.556 255.772 -136.908C265.168 -128.089 274.428 -117.959 283.297 -106.799C290.702 -97.4825 297.996 -87.6149 305.099 -77.9099L308.78 -72.8718C318.505 -59.5598 326.944 -49.1927 335.338 -40.2456C344.701 -30.2649 354.76 -21.9509 365.258 -15.5129L366.463 -14.7829C377.404 -8.2453 389.934 -3.06961 403.704 0.599548C415.567 3.75974 428.759 6.2999 445.222 8.59586L451.202 9.43146C463.211 11.1165 475.478 12.9015 487.461 15.0939C501.593 17.681 515.003 21.1208 527.313 25.3173C539.567 29.5167 551.471 34.7057 563.703 41.1837C575.739 47.5793 587.302 54.2984 598.006 60.6055L607.031 65.9417C611.84 68.7858 616.647 71.6311 621.446 74.4784L630.652 79.9408L665.084 100.529L726.836 137.461L726.532 154.799L635.414 100.303L634.409 99.7036C630.977 97.6508 627.553 95.6027 624.117 93.5465C616.619 89.0981 609.119 84.6477 601.607 80.2048L590.262 73.5078L586.617 71.3686C576.818 65.6353 566.397 59.7011 555.726 54.2671C543.497 48.0871 530.899 43.1179 518.279 39.4948C505.725 35.9096 492.172 33.2423 476.846 31.3427C466.111 30.0111 455.055 28.9337 444.263 27.9095L433.314 26.8715C416.764 25.2851 403.389 23.2003 391.217 20.3087C377.812 17.1208 365.668 12.3776 355.106 6.20117L354.016 5.55496C343.315 -0.874756 333.163 -9.45218 323.846 -19.9399C315.657 -29.1559 307.295 -40.2105 298.281 -53.7353L296.057 -57.0742L293.836 -60.4154C287.381 -70.1263 280.706 -80.1682 273.966 -89.7302C265.133 -102.257 256.485 -112.876 247.527 -122.196C243.253 -126.626 238.716 -130.9 233.961 -135.009C228.651 -139.599 223.071 -143.975 217.246 -148.091C215.886 -149.044 214.521 -149.988 213.15 -150.921C203.5 -157.497 193.694 -163.568 184.44 -169.195L183.105 -170.003C178.096 -173.044 173.086 -176.077 168.081 -179.1L151.269 -189.244L46.2184 -252.069L61.4223 -260.497ZM78.6544 -270.049L167.766 -216.756C176.035 -211.777 184.32 -206.789 192.613 -201.778L203.966 -194.904C212.632 -189.636 223.327 -183.054 233.926 -176.183C240.346 -171.993 246.349 -167.792 252.046 -163.514L254.317 -161.801L254.868 -161.372C258.487 -158.585 261.99 -155.762 265.388 -152.879C275.158 -144.58 284.869 -135.186 294.248 -124.958C296.437 -122.567 298.603 -120.154 300.773 -117.694L302.401 -115.839C307.293 -110.245 312.246 -104.376 317.599 -97.9315L321.988 -92.6312L322.74 -91.7261C332.512 -79.9701 340.864 -70.7423 348.9 -62.8143C350.463 -61.2702 352.045 -59.7775 353.637 -58.3169L354.834 -57.2271C355.385 -56.729 355.931 -56.2175 356.485 -55.7281L357.397 -54.9461C364.43 -48.8181 371.694 -43.4357 379.105 -38.894L380.428 -38.0932C391.349 -31.5661 403.72 -26.1534 417.2 -22.0038C419.321 -21.3499 421.497 -20.7097 423.739 -20.077L425.521 -19.5791C434.503 -17.0991 444.533 -14.7554 456.374 -12.3612L457.564 -12.1216C470.674 -9.49261 484.682 -6.58011 498.276 -3.10535C499.967 -2.67004 501.65 -2.22375 503.323 -1.76788C515.034 1.42938 526.282 5.15237 536.826 9.32269C548.549 13.9854 560.242 19.5456 572.572 26.3197C579.014 29.8818 585.476 33.5574 591.844 37.2104L600.702 42.304L606.832 45.8332L727.195 117.82L726.893 135.156L632.894 78.9364L622.469 72.76C617.667 69.9106 612.857 67.0638 608.043 64.2166C605.036 62.4376 602.041 60.6547 599.028 58.878L595.422 56.7574C585.725 51.0671 575.379 45.1146 564.647 39.4112C552.322 32.8851 540.324 27.6533 527.967 23.4213C515.562 19.1915 502.058 15.7273 487.828 13.1223C474.808 10.7397 461.473 8.84033 448.494 7.02759L445.506 6.61063C429.123 4.32669 416.007 1.79959 404.226 -1.33942C390.636 -4.95874 378.279 -10.0623 367.498 -16.5049L367.244 -16.6574C356.561 -23.0763 346.321 -31.4727 336.803 -41.618C328.874 -50.071 320.896 -59.8096 311.81 -72.1388L310.334 -74.1504L306.783 -79.0088C299.649 -88.7595 292.321 -98.6744 284.871 -108.049C275.933 -119.292 266.605 -129.493 257.146 -138.372C247.821 -147.093 237.39 -155.374 226.142 -162.986C214.952 -170.52 203.693 -177.458 193.192 -183.834C185.092 -188.75 176.995 -193.637 168.911 -198.511L160.023 -203.868L63.4519 -261.622L78.6544 -270.049ZM80.6777 -271.17L95.8816 -279.597L209.719 -211.512L214.495 -208.559L225.108 -202.009C230.976 -198.384 236.932 -194.69 242.798 -190.996C254.815 -183.373 265.309 -176.067 274.881 -168.661C284.9 -160.906 295.022 -152.183 304.966 -142.737L306.646 -141.131C315.864 -132.284 324.652 -123.25 331.671 -115.924L336.075 -111.325C343.484 -103.622 352.766 -94.2229 362.519 -85.4557C364.417 -83.7484 366.333 -82.1034 368.258 -80.4873C376.366 -73.6638 384.664 -67.6336 393.019 -62.526L394.523 -61.6127C405.379 -55.1203 417.563 -49.4255 430.738 -44.6861C443.153 -40.2183 455.875 -36.4703 466.204 -33.5753L472.886 -31.7166C487.306 -27.6931 498.505 -24.326 508.859 -20.9072C521.917 -16.5859 534.491 -11.7311 546.23 -6.47772C557.359 -1.46774 568.87 4.41528 581.423 11.5077C587.341 14.8736 593.31 18.3175 599.179 21.7165L612.061 29.1809C613.235 29.8602 614.408 30.5386 615.579 31.2154L727.533 98.1722L727.231 115.507L607.851 44.1072L601.442 40.4223L595.326 36.9007C588.147 32.7733 580.831 28.5986 573.537 24.5685C561.111 17.7408 549.344 12.1461 537.563 7.46222C536.047 6.86288 534.517 6.27231 532.973 5.69235C522.164 1.62527 510.683 -1.97934 498.773 -5.0423C489.679 -7.36688 480.414 -9.43518 471.352 -11.3384C468.33 -11.9731 465.33 -12.5907 462.368 -13.192L456.718 -14.3331L454.31 -14.8254C442.795 -17.2014 433.034 -19.531 424.295 -21.9976C422.066 -22.6267 419.902 -23.2655 417.789 -23.917C404.449 -28.0251 392.224 -33.3723 381.454 -39.8096L381.194 -39.9657C370.521 -46.379 360.129 -54.5435 350.304 -64.2372L349.132 -65.4016C341.299 -73.2287 333.099 -82.3602 323.495 -93.9469L320.878 -97.1105C311.809 -108.061 303.945 -117.333 295.722 -126.31C286.29 -136.596 276.52 -146.048 266.682 -154.403C265.003 -155.828 263.297 -157.237 261.566 -158.635L259.334 -160.426C257.671 -161.744 255.97 -163.051 254.253 -164.352C248.222 -168.92 241.856 -173.396 235.016 -177.86L233.128 -179.081C221.8 -186.381 210.579 -193.238 201.944 -198.47C190.881 -205.174 179.824 -211.83 168.766 -218.488L80.6777 -271.17ZM113.109 -289.143L218.465 -226.131L225.397 -221.873L232.34 -217.619C238.773 -213.68 245.211 -209.736 251.639 -205.76L253.863 -204.373C265.598 -197.034 275.298 -190.598 284.234 -184.224C294.6 -176.824 305.075 -168.676 315.369 -160.006L317.121 -158.526C327.026 -150.126 336.546 -141.584 344.058 -134.767L347.942 -131.243C355.695 -124.226 365.424 -115.595 375.648 -107.287C385.982 -98.8915 396.064 -91.724 406.41 -85.4221L407.928 -84.5052L408.151 -84.3714C419.107 -77.8201 430.761 -71.9946 443.777 -66.5619L445.904 -65.6797C457.607 -60.8583 469.381 -56.5485 478.897 -53.1584L485.727 -50.7288C495.508 -47.2336 507.414 -42.8842 519.141 -38.2113C531.757 -33.1815 543.988 -27.7419 555.491 -22.0421L557.358 -21.1111C567.342 -16.1035 577.85 -10.3962 590.236 -3.25711C594.628 -0.71524 599.011 1.8367 603.39 4.39178L609.957 8.22589C614.747 11.0237 619.534 13.8207 624.315 16.599L727.88 78.5389L727.578 95.8683L616.597 29.4925L611.454 26.5166L597.425 18.3866C592.446 15.5068 587.413 12.6094 582.413 9.76465C569.806 2.64206 558.24 -3.26758 547.055 -8.30402C535.254 -13.5851 522.616 -18.465 509.493 -22.8076L507.319 -23.5203C495.001 -27.5305 482.728 -31.0526 472.843 -33.8079L466.645 -35.5333C456.34 -38.4249 443.686 -42.1568 431.42 -46.5687C418.821 -51.1019 407.138 -56.5155 396.671 -62.6689L395.189 -63.5496C384.575 -69.9268 374.037 -77.7963 363.862 -86.9435C354.111 -95.7162 344.874 -105.068 337.511 -112.725L331.909 -118.572C324.661 -126.12 315.698 -135.29 306.35 -144.188C296.353 -153.684 286.178 -162.451 276.111 -170.245C266.52 -177.668 255.976 -185.01 243.872 -192.689C237.025 -197.001 230.061 -201.308 223.257 -205.507L220.352 -207.299C217.158 -209.27 213.965 -211.24 210.765 -213.221L97.9096 -280.72L113.109 -289.143ZM130.332 -298.692L260.603 -220.782C263.29 -219.038 265.985 -217.304 268.684 -215.573L272.733 -212.977C279.542 -208.617 286.583 -204.107 293.438 -199.542C303.309 -192.966 313.391 -185.812 323.435 -178.253L325.443 -176.736C335.008 -169.484 344.44 -161.995 352.25 -155.718L360.09 -149.401C368.077 -142.981 377.892 -135.211 387.949 -127.737C399.157 -119.399 409.955 -112.138 420.879 -105.616C431.832 -99.0645 443.322 -92.9903 456.001 -87.0464L458.07 -86.0804C468.419 -81.2705 478.797 -76.7731 487.528 -73.0654L497.476 -68.8604C509.932 -63.5794 519.846 -59.2302 529.122 -54.9834C541.466 -49.3094 553.414 -43.3867 564.634 -37.3778C570.083 -34.458 575.557 -31.4315 580.935 -28.4352L592.747 -21.8456C594.902 -20.6469 597.054 -19.4538 599.203 -18.2714L728.212 58.887L727.909 76.2172L625.342 14.8731L618.29 10.7664L611.241 6.65149C606.803 4.05972 602.364 1.46671 597.919 -1.1189L591.242 -4.99167L588.933 -6.31842C576.731 -13.3063 566.335 -18.8996 556.387 -23.835C544.878 -29.5402 532.598 -35.002 519.887 -40.0706L517.784 -40.9045C506.569 -45.3299 495.453 -49.3845 486.267 -52.6644L476.938 -55.9861C467.361 -59.4214 455.863 -63.6852 444.553 -68.4081C432.339 -73.5061 420.882 -79.1927 410.479 -85.3209L408.741 -86.3541C398.45 -92.5375 388.439 -99.5677 378.196 -107.806L376.915 -108.842C368.835 -115.406 360.385 -122.702 349.856 -132.215L342.525 -138.859C334.989 -145.665 325.89 -153.765 316.663 -161.536C306.293 -170.267 295.777 -178.448 285.401 -185.854L283.712 -187.053C274.653 -193.454 264.74 -199.976 252.698 -207.461C248.409 -210.114 244.117 -212.752 239.825 -215.383L233.391 -219.326C228.761 -222.161 224.135 -224.994 219.508 -227.842L115.133 -290.268L130.332 -298.692ZM725.843 194.075L606.672 122.801L598.643 118.046C592.903 114.644 587.161 111.242 581.412 107.844L572.783 102.751L570.562 101.448C560.825 95.7451 549.653 89.3947 537.927 83.9698C525.683 78.3637 512.59 74.1868 499.013 71.5531C486.302 69.087 472.16 67.4177 455.777 66.4499C450.641 66.1464 445.425 65.8735 440.273 65.6133L427.57 64.9788C422.067 64.7008 416.496 64.407 411.016 64.0758C394.733 63.0933 380.764 61.2868 368.311 58.5559C354.385 55.5013 341.869 50.69 331.11 44.258L330.894 44.1282C320.217 37.7124 310.144 29.0308 300.959 18.3222C292.658 8.64859 284.502 -2.73859 276.022 -16.4884C272.437 -22.294 268.844 -28.2457 265.336 -34.0742L260.084 -42.8007C257.728 -46.7095 255.34 -50.6531 252.965 -54.5263C244.453 -68.4104 236.402 -80.0074 228.352 -89.9801C219.701 -100.699 209.99 -110.225 199.486 -118.298C188.862 -126.417 177.575 -133.508 166.96 -139.963C159.498 -144.494 152.038 -149 144.589 -153.494L133.793 -160.003L11.7768 -232.977L26.968 -241.397L141.494 -172.905L142.24 -172.455C153.021 -165.953 163.833 -159.434 174.647 -152.862L178.008 -150.809C187.589 -144.936 197.609 -138.568 207.165 -131.565C217.868 -123.671 227.696 -114.626 236.377 -104.683C244.75 -95.094 252.993 -83.9763 261.578 -70.6962C265.37 -64.8304 269.163 -58.7971 272.886 -52.8346L276.583 -46.9045C279.4 -42.3853 282.217 -37.8638 285.052 -33.3674L286.465 -31.1402C294.686 -18.2733 302.502 -7.5896 310.311 1.4628C319.41 12.0155 329.36 20.6377 339.903 27.1085L340.981 27.7613C351.934 34.3066 364.641 39.213 378.748 42.3435C389.581 44.7474 401.673 46.4994 415.56 47.6725C417.544 47.8402 419.564 47.996 421.623 48.14L430.309 48.7267L444.116 49.6343C451.373 50.1156 458.729 50.6269 465.935 51.2252C481.803 52.5438 495.609 54.6117 508.139 57.5478C521.083 60.585 533.803 65.0909 545.944 70.9407C556.811 76.2032 567.163 82.0292 579.211 89.098L584.103 91.9789L592.367 96.8614L601.305 102.156C605.74 104.785 610.11 107.38 614.36 109.906L726.145 176.763L725.843 194.075ZM725.718 203.039L716.337 208.239L597.926 137.421L593.218 134.626C586.75 130.787 580.277 126.945 573.795 123.108L564.064 117.358C553.791 111.304 541.767 104.377 529.067 98.7704C517.011 93.4853 503.741 89.5996 489.625 87.2206C476.951 85.0834 462.677 83.6408 445.99 82.8086C442.864 82.6538 439.734 82.5066 436.603 82.3619L424.269 81.7933C416.587 81.4327 408.8 81.0411 401.171 80.553C385.092 79.524 371.175 77.634 358.624 74.778C345.157 71.7075 332.973 67.0172 322.392 60.8315L321.291 60.1787C310.607 53.7588 300.503 45.133 291.257 34.54C282.831 24.8876 274.623 13.5861 266.163 -0.00915527C260.658 -8.85596 255.184 -18.0354 249.89 -26.9144C247.655 -30.6641 245.419 -34.4106 243.178 -38.1434C234.641 -52.3501 226.726 -64.1631 218.978 -74.2572C210.319 -85.5314 200.785 -95.3559 190.639 -103.461C180.228 -111.716 168.908 -118.86 158.225 -125.35C150.46 -130.061 142.697 -134.747 134.946 -139.419L125.053 -145.38L5.46271 -216.902L5.68254 -229.597L9.74351 -231.849L132.751 -158.283L133.65 -157.741C144.38 -151.27 155.141 -144.781 165.907 -138.248C176.503 -131.802 187.755 -124.731 198.256 -116.705C208.632 -108.73 218.231 -99.3128 226.782 -88.7163C234.772 -78.8168 242.776 -67.2903 251.248 -53.4757C253.617 -49.6108 256 -45.6745 258.352 -41.7725L265.364 -30.1234C268.314 -25.2304 271.312 -20.2816 274.306 -15.4318C282.862 -1.56366 291.079 9.90448 299.427 19.6312C308.516 30.2203 318.466 38.8642 329.02 45.3428L330.071 45.9797C341.025 52.5264 353.742 57.4165 367.869 60.5141C380.416 63.2676 394.488 65.0878 410.883 66.0795C417.454 66.4754 424.153 66.8182 430.708 67.1457L440.123 67.6151C445.282 67.8752 450.507 68.1488 455.648 68.4521C471.946 69.4161 486.003 71.0746 498.62 73.5227C512.062 76.1316 525.003 80.2604 537.078 85.7937C548.426 91.0433 559.148 97.0611 571.757 104.481C583.039 111.13 594.29 117.806 605.521 124.471L725.836 196.428L725.718 203.039ZM699.085 217.784L589.157 152.041C577.895 145.344 566.616 138.642 555.304 131.961L552.791 130.48C542.679 124.542 531.872 118.457 520.22 113.501C508.261 108.452 494.886 104.741 480.466 102.474C467.769 100.477 453.877 99.1279 436.747 98.2263L422.08 97.4625C412.131 96.9379 402.019 96.3638 392.164 95.5965C376.337 94.3654 362.542 92.2759 349.988 89.2093C336.303 85.8679 323.878 80.8936 313.051 74.4259L312.814 74.2832C302.085 67.8365 291.918 59.3176 282.592 48.961C273.987 39.4014 265.66 28.3024 257.137 15.028C250.975 5.42761 244.892 -4.58267 238.978 -14.3672L233.936 -22.713L232.649 -24.8334C224.757 -37.7761 217.768 -48.2781 210.838 -57.6089L209.826 -58.9671C201.125 -70.5589 191.697 -80.5568 181.801 -88.6834C172.169 -96.5719 161.91 -103.207 149.471 -110.745C138.395 -117.451 127.329 -124.115 116.289 -130.757L5.10368 -197.254L5.40603 -214.592L124.008 -143.662L141.032 -133.397C146.408 -130.153 151.789 -126.901 157.171 -123.638L159.955 -121.94C169.745 -115.943 179.947 -109.375 189.377 -101.892C199.399 -93.8916 208.819 -84.1823 217.374 -73.0346L218.66 -71.346C225.958 -61.6857 233.428 -50.4623 241.447 -37.11C242.93 -34.6419 244.409 -32.1671 245.887 -29.6894L248.104 -25.9714C253.42 -17.0563 258.916 -7.83783 264.448 1.05103C272.973 14.741 281.243 26.1266 289.733 35.8581C298.852 46.314 308.817 54.8876 319.365 61.3616L320.472 62.0328C331.433 68.5836 344.113 73.5287 358.162 76.731C370.798 79.6111 384.819 81.5154 401.026 82.5531C408.657 83.0413 416.44 83.4331 424.117 83.7936L431.749 84.1461C436.461 84.3631 441.172 84.5782 445.874 84.8118L448.618 84.9545C464.042 85.7953 477.367 87.186 489.276 89.1959C503.232 91.5477 516.344 95.3875 528.245 100.606C539.981 105.785 551.157 112.118 560.893 117.828L563.031 119.086C569.317 122.793 575.592 126.509 581.858 130.226L596.876 139.137L714.287 209.358L699.085 217.784ZM681.874 227.347L546.632 146.462L543.203 144.479C533.549 138.909 522.826 132.899 511.45 128.171C499.594 123.245 486.196 119.577 471.628 117.27L469.873 116.998C458.112 115.204 445.13 113.865 429.289 112.811L419.724 112.184C407.828 111.396 395.713 110.538 383.96 109.374C368.433 107.835 354.802 105.472 342.286 102.15C328.801 98.57 316.448 93.4579 305.572 86.9589L305.314 86.8039C294.543 80.3319 284.298 71.9477 274.858 61.8811C266.037 52.4721 257.545 41.6447 248.897 28.779C242.086 18.6423 235.491 8.18185 229.082 -2.09293L225.26 -8.23145C216.226 -22.744 208.512 -34.1651 200.982 -44.1729C192.204 -55.8393 182.803 -65.8791 173.041 -74.0105C162.525 -82.7705 150.856 -90.0271 140.743 -96.1421C129.667 -102.84 118.6 -109.494 107.551 -116.137L4.76558 -177.609L5.06775 -194.94L115.266 -129.035C126.302 -122.395 137.366 -115.731 148.439 -109.027L150.806 -107.587C162.116 -100.679 171.611 -94.44 180.537 -87.1308C190.32 -79.0897 199.637 -69.2084 208.232 -57.7585L208.771 -57.0356L209.312 -56.308C216.562 -46.5305 223.874 -35.4774 232.219 -21.6844L235.302 -16.5856C237.324 -13.2369 239.374 -9.85141 241.435 -6.45837C244.369 -1.62814 247.333 3.22012 250.331 8.01624C251.073 9.20279 251.822 10.3688 252.567 11.548L254.489 14.5943L255.458 16.1142C264.034 29.4767 272.425 40.6601 281.112 50.3067C290.302 60.513 300.303 68.9624 310.857 75.4393L312.031 76.1509C323.026 82.72 335.639 87.7702 349.517 91.1603C362.182 94.2531 376.082 96.3587 392.014 97.5984C401.882 98.3663 411.998 98.9407 421.949 99.4657L436.648 100.232C453.668 101.123 467.494 102.466 480.16 104.457C494.418 106.7 507.637 110.365 519.445 115.35C531.939 120.664 543.511 127.324 554.293 133.69C565.603 140.371 576.882 147.072 588.14 153.768L697.07 218.915L681.874 227.347ZM664.633 236.884L537.888 161.082L534.463 159.089C524.818 153.491 514.106 147.45 502.747 142.711C490.959 137.791 477.611 134.046 463.074 131.581L461.442 131.308C450.221 129.459 437.656 127.948 422.222 126.588L419.942 126.39C414.813 125.951 409.728 125.509 404.687 125.048L402.005 124.801C399.768 124.592 397.543 124.377 395.324 124.157C393.393 123.965 391.468 123.768 389.549 123.565C388.151 123.418 386.755 123.267 385.364 123.113C383.733 122.931 382.105 122.745 380.483 122.553L376.396 122.061C361.158 120.153 347.714 117.478 335.295 113.883C322.009 110.037 309.737 104.778 298.818 98.2552C287.899 91.7195 277.469 83.4295 267.83 73.5919C258.812 64.3887 250.134 53.8712 241.301 41.4388C240.091 39.7356 238.888 38.0199 237.69 36.2969C231.784 27.8007 225.975 19.0248 220.401 10.4973L215.737 3.34955C209.493 -6.18658 203.922 -14.3067 198.665 -21.5217L198.103 -22.2913C196.171 -24.9315 194.281 -27.4496 192.414 -29.8722C183.494 -41.4478 174.047 -51.4069 164.338 -59.4687C154.361 -67.7522 143.819 -74.4037 132.057 -81.6313L4.4225 -157.964L4.72639 -175.293L106.534 -114.406C117.567 -107.772 128.632 -101.12 139.708 -94.4214L141.808 -93.148C151.35 -87.3439 162.067 -80.539 171.76 -72.4655C181.396 -64.4394 190.689 -54.5128 199.384 -42.961L200.427 -41.567C207.569 -31.974 214.954 -20.9898 223.56 -7.16565L227.401 -0.99939C233.838 9.32037 240.454 19.8149 247.238 29.9032C255.948 42.8633 264.505 53.773 273.398 63.2567C282.674 73.1516 292.724 81.4427 303.29 87.9238L304.546 88.6847C315.579 95.2793 328.104 100.462 341.772 104.091C354.39 107.443 368.124 109.824 383.761 111.372C396.764 112.661 410.192 113.574 423.282 114.432L427.965 114.737L431.499 114.975C446.994 116.054 459.723 117.424 471.314 119.255C485.711 121.531 498.956 125.155 510.681 130.027C523.301 135.271 535.166 142.143 545.621 148.197L679.832 228.466L664.633 236.884ZM647.426 246.443L529.147 175.704L524.561 173.025C515.227 167.594 504.936 161.809 494.12 157.166C482.281 152.085 469.417 148.262 454.792 145.477L453.242 145.186C441.831 143.065 429.398 141.286 413.331 139.474L407.617 138.832C395.636 137.476 382.261 135.877 369.369 133.886C354.422 131.578 341.172 128.577 328.86 124.71C315.786 120.607 303.593 115.204 292.622 108.647L292.348 108.482L290.996 107.643C290.161 107.13 289.327 106.619 288.497 106.088C280.759 101.114 273.253 95.3369 266.109 88.8511C265.748 88.5235 265.383 88.2072 265.023 87.8756L264.779 87.6436C263.63 86.5789 262.488 85.4986 261.359 84.3964C252.146 75.4122 243.271 65.2195 234.226 53.2327L232.718 51.2259C225.447 41.5041 218.364 31.4235 210.182 19.5611L208.087 16.5242C198.83 3.14645 191.389 -6.94849 184.107 -16.0142C174.866 -27.5156 165.572 -37.0079 155.693 -45.0331C145.588 -53.2414 134.613 -60.1109 123.313 -67.01L4.08543 -138.315L4.38846 -155.651L131.025 -79.9135L134.877 -77.5379C145.033 -71.2438 154.287 -65.2116 163.066 -57.922C172.663 -49.9519 182.005 -40.101 190.835 -28.6427C193.342 -25.389 195.891 -21.9631 198.527 -18.3023L199.409 -17.0733C204.141 -10.4532 209.166 -3.05734 214.733 5.46948L218.296 10.9359C224.129 19.8687 230.242 29.1157 236.531 38.1354C237.577 39.6353 238.625 41.1259 239.675 42.6042C248.566 55.1213 257.31 65.7171 266.406 74.9985C275.782 84.5664 285.893 92.6948 296.481 99.181L297.798 99.9786C308.863 106.591 321.292 111.917 334.743 115.811C347.262 119.436 360.808 122.131 376.153 124.052L377.801 124.244C380.245 124.542 382.701 124.828 385.172 125.103C386.535 125.254 387.904 125.402 389.273 125.547C391.23 125.754 393.194 125.955 395.165 126.15L398.436 126.47L403.16 126.917L404.604 127.049C408.371 127.393 412.151 127.73 415.959 128.062L422.047 128.588C438.169 130.007 451.151 131.595 462.743 133.561C477.132 136.001 490.332 139.702 501.982 144.563C514.611 149.833 526.447 156.735 536.88 162.82L662.621 238.021L647.426 246.443ZM612.965 265.53L511.673 204.951L508.204 202.901C505.911 201.549 503.656 200.224 501.423 198.923L498.732 197.357L497.156 196.448L494.485 194.916C488.748 191.643 483.081 188.518 477.261 185.503L477.195 185.471C464.644 180.054 451.728 175.633 438.804 172.331L436.57 171.768C426.329 169.217 415.12 166.867 400.904 164.291L391.449 162.596C389.911 162.319 388.397 162.045 386.902 161.772L383.169 161.085L380.654 160.616L377.063 159.939L375.267 159.595L371.992 158.96L370.041 158.575L366.744 157.917L364.956 157.551L361.431 156.823C360.482 156.624 359.537 156.419 358.59 156.215C357.855 156.058 357.117 155.903 356.384 155.742C341.997 152.598 329.131 148.945 317.049 144.579C313.868 143.43 310.73 142.213 307.64 140.933C298.468 137.13 289.714 132.751 281.507 127.866L281.228 127.704C271.308 121.724 261.618 114.724 252.441 106.81L251.297 105.815C250.692 105.285 250.081 104.763 249.479 104.225C239.926 95.6736 230.661 86.1224 221.154 75.0225C212.682 65.1367 204.299 54.6845 196.433 44.7385L193.403 40.9052C183.571 28.5034 175.702 19.1457 168.048 10.745C159.137 0.970154 149.29 -8.27933 138.727 -16.7896C128.87 -23.6533 118.593 -30.0273 109.377 -35.6165L105.644 -37.8737L3.39601 -99.0225L3.69836 -116.361L113.54 -50.67L116.896 -48.6289C126.461 -42.7962 136.46 -36.5315 146.103 -29.5849C156.299 -20.9144 165.846 -11.3679 174.483 -1.21051L175.962 0.539764C182.883 8.77856 190.112 18.051 199.024 30.1237L200.309 31.8677C208.39 42.8538 217.093 54.5485 225.991 65.6182C235.315 77.2207 244.448 87.1581 253.916 95.9992C263.816 105.246 274.413 113.285 285.419 119.898L285.779 120.113C296.909 126.763 309.155 132.367 322.181 136.768C334.47 140.922 347.616 144.274 362.371 147.015C375.094 149.377 387.898 151.332 403.053 153.503L404.576 153.721C421.684 156.166 434.551 158.405 446.297 160.978C459.437 163.857 472.458 167.87 485.001 172.907C496.573 178.686 507.871 185.262 519.383 192.05L628.16 257.108L612.965 265.53ZM593.703 276.214L578.507 284.635L494.181 234.204C483.894 228.048 473.785 222.031 463.507 216.227L460.032 214.276C448.27 208.457 435.914 203.136 423.265 198.446C411.562 194.692 399.209 191.129 385.557 187.568L377.297 185.427C366.335 182.58 355.14 179.628 344.095 176.454C330.184 172.455 317.685 168.177 305.883 163.378C293.944 158.52 282.503 152.885 271.85 146.615L269.971 145.498C259.082 138.956 248.41 131.381 238.245 122.979C228.434 114.873 218.792 105.935 208.764 95.6537L206.885 93.7229C199.082 85.6764 191.546 77.5789 182.863 68.1841L180.757 65.9038C170.764 55.0851 161.5 45.5476 152.403 36.7177C142.433 27.848 132.054 19.5167 121.513 11.9264C111.219 5.25635 100.596 -1.17621 90.4924 -7.22852L2.70266 -59.7316L3.00517 -77.061L98.5844 -19.8969C109.874 -13.1224 119.505 -7.19281 128.985 -0.853943C139.219 6.91354 149.314 15.5741 158.956 24.8543L160.731 26.7548C168.449 35.0489 176.49 44.1164 185.221 54.3686L191.103 61.2781C199.037 70.5701 206.125 78.7124 213.451 86.7353C223.287 97.5005 232.798 106.802 242.53 115.169C247.629 119.553 252.875 123.696 258.231 127.576C259.109 128.211 259.993 128.829 260.878 129.452L262.182 130.374C263.116 131.022 264.056 131.651 264.996 132.281L266.275 133.146L267.205 133.749L268.136 134.349C268.946 134.873 269.755 135.399 270.568 135.911L271.004 136.179C272.118 136.877 273.233 137.57 274.355 138.244L274.808 138.515C285.98 145.185 298.064 151.033 310.723 155.896C322.759 160.523 335.518 164.51 349.726 168.084C362.519 171.304 375.763 174.224 387.476 176.752L390.371 177.375C405.225 180.569 418.407 183.729 430.62 187.019C443.531 191.242 456.034 196.155 467.781 201.622C478.868 207.611 489.676 213.995 499.862 220.088L593.703 276.214ZM559.253 295.3L544.054 303.726L466.599 257.406C458.383 252.5 450.587 247.866 442.743 243.263C431.165 236.89 419.231 230.887 407.241 225.408C395.449 220.497 383.183 215.752 369.73 210.898L356.71 206.356C348.381 203.444 339.932 200.469 331.633 197.455C318.062 192.522 305.927 187.621 294.535 182.472C282.327 176.953 270.534 170.806 259.483 164.204C248.4 157.561 237.441 150.137 226.833 142.029C216.9 134.441 206.879 126.113 196.197 116.57C188.147 109.379 180.057 101.974 172.172 94.7386L166.522 89.552C156.029 80.1151 146.147 71.612 136.284 63.5342C125.938 55.6262 115.15 47.9925 104.193 40.8337L101.198 39.0015C90.7112 32.5988 80.2077 26.3175 70.846 20.7222L2.02113 -20.4371L2.32399 -37.7768L78.6261 7.8555C86.5369 12.5854 94.3135 17.2534 101.993 21.9668L104.917 23.7713L107.832 25.5815C109.143 26.396 110.461 27.2065 111.766 28.0272C122.38 35.2935 132.926 43.2251 143.082 51.5754C152.657 60.0822 162.484 69.3279 172.287 79.0547L181.493 88.1917C187.967 94.6089 194.571 101.115 201.171 107.432L202.198 108.409L203.223 109.377C211.865 117.567 220.18 124.89 228.491 131.625L229.738 132.631C230.283 133.068 230.827 133.513 231.372 133.946C241.412 141.928 251.85 149.246 262.503 155.675L264.03 156.59C275.152 163.235 287.086 169.309 299.498 174.643C311.136 179.643 323.51 184.253 337.325 188.737C340.069 189.628 342.831 190.51 345.601 191.386C347.08 191.853 348.564 192.314 350.046 192.776C351.282 193.163 352.518 193.553 353.755 193.937C357.162 194.993 360.566 196.04 363.947 197.076L376.26 200.839C389.577 204.917 402.478 209.257 414.568 213.729C426.799 218.802 438.88 224.454 450.443 230.51C460.439 236.245 470.225 242.059 480.84 248.405L559.253 295.3ZM2.36678 -40.0808L2.66981 -57.4111L87.301 -6.79755C97.9273 -0.441772 109.24 6.36737 120.378 13.581C130.818 21.1011 141.144 29.3893 151.035 38.1869C160.068 46.9584 169.307 56.4694 179.281 67.265L183.846 72.2048C191.222 80.1749 199.25 88.7837 207.325 97.0551C217.408 107.39 227.102 116.376 236.962 124.526C247.203 132.989 257.951 140.619 268.919 147.209L269.431 147.515C280.561 154.167 292.57 160.128 305.122 165.237C316.989 170.065 329.554 174.366 343.535 178.38C356.932 182.227 370.959 185.86 383.333 189.065L386.501 189.891C399.601 193.334 411.452 196.765 422.604 200.341C435.15 204.993 447.441 210.286 459.093 216.05C470.533 222.433 481.728 229.092 493.142 235.923L576.48 285.763L561.288 294.182L477.887 244.309C468.934 238.969 460.871 234.2 452.568 229.423L451.4 228.754C439.792 222.669 427.656 216.991 415.295 211.865C403.133 207.367 390.196 203.014 376.842 198.924L364.155 195.047C360.932 194.06 357.688 193.063 354.441 192.055C348.922 190.343 343.395 188.603 337.939 186.832C324.182 182.367 311.866 177.778 300.285 172.802C287.953 167.505 276.101 161.472 265.052 154.871C254.033 148.296 243.094 140.704 232.619 132.382L231.734 131.673L230.849 130.958C222.401 124.16 213.956 116.765 205.173 108.47L203.432 106.823C203.141 106.547 202.849 106.269 202.557 105.989C195.945 99.6561 189.322 93.1328 182.83 86.6979L173.7 77.637C163.865 67.8802 154.012 58.6105 144.385 50.0576C134.152 41.6434 123.559 33.6768 112.867 26.3578L111.52 25.5204C102.211 19.6912 92.7938 14.005 83.1968 8.25894L71.3618 1.1796L2.36678 -40.0808ZM3.35837 -96.7154L104.612 -36.1609L108.335 -33.9094C117.524 -28.3366 127.765 -21.9852 137.524 -15.1918C147.95 -6.79004 157.721 2.38858 166.567 12.0902L167.581 13.2068C174.691 21.0672 182.093 29.8849 191.203 41.3541L196.558 48.1208C203.941 57.4321 211.745 67.1182 219.631 76.3227C229.202 87.4913 238.528 97.1059 248.141 105.713C248.663 106.181 249.195 106.634 249.721 107.096C250.468 107.751 251.21 108.412 251.963 109.056L252.25 109.295C260.674 116.469 269.503 122.894 278.579 128.441L280.02 129.313L280.484 129.585C288.762 134.515 297.603 138.938 306.873 142.78C309.993 144.074 313.161 145.302 316.372 146.462C328.51 150.854 341.459 154.528 355.96 157.698L357.059 157.935L361.018 158.779L362.723 159.132C363.932 159.383 365.143 159.633 366.362 159.88L369.61 160.529L372.288 161.055L375.467 161.67L378.718 162.287L381.716 162.85L386.695 163.767L391.764 164.686L400.548 166.261C415.763 169.017 427.513 171.512 438.313 174.271C451.093 177.535 463.897 181.916 476.372 187.296L478.276 188.296C479.07 188.714 479.867 189.127 480.657 189.549L481.763 190.148C482.832 190.721 483.9 191.295 484.963 191.877L486.053 192.481C487.109 193.063 488.165 193.645 489.218 194.235L490.828 195.145C491.705 195.638 492.581 196.131 493.456 196.631L496.5 198.379L498.579 199.581C502.592 201.91 506.604 204.279 510.639 206.672L610.937 266.656L595.743 275.079L502.934 219.574C492.068 213.071 480.474 206.191 468.66 199.814C456.814 194.302 444.227 189.355 431.202 185.094C418.905 181.782 405.69 178.614 390.802 175.412L385.877 174.35C374.304 171.845 362.19 169.152 350.224 166.138C336.116 162.586 323.432 158.624 311.449 154.02C298.876 149.191 286.895 143.394 275.842 136.789C264.832 130.234 254.038 122.41 243.842 113.644C234.148 105.308 224.693 96.0625 214.936 85.3792C206.62 76.2757 198.59 66.9626 190.994 58.0478L185.741 51.8789C176.691 41.2892 168.387 31.9743 160.387 23.4415C150.622 14.0463 140.466 5.3331 130.155 -2.49103C119.852 -9.3779 109.474 -15.7284 97.0845 -23.1422L3.05585 -79.3743L3.35837 -96.7154ZM122.284 -65.2907C133.53 -58.424 144.451 -51.5901 154.437 -43.4722C164.21 -35.5279 173.408 -26.1341 182.553 -14.7536L183.52 -13.5445C190.461 -4.83182 197.623 4.91962 206.446 17.6695L211.053 24.3399C218.765 35.4798 225.572 45.0888 232.634 54.4459C241.741 66.5119 250.682 76.7794 259.966 85.8354C261.945 87.7679 263.964 89.6258 266.001 91.4426C266.493 91.8809 266.98 92.3322 267.476 92.764L268.4 93.548C274.506 98.8046 280.849 103.558 287.374 107.744C288.385 108.395 289.406 109.019 290.427 109.644L291.599 110.371C302.707 117.009 315.043 122.477 328.266 126.625C340.673 130.522 354.02 133.546 369.068 135.869C380.87 137.693 393.066 139.187 404.231 140.467L414.2 141.592C430.442 143.442 442.923 145.26 454.423 147.45C468.893 150.202 481.622 153.983 493.335 159.011C505.876 164.394 517.704 171.326 528.133 177.439L645.38 247.561L630.185 255.983L520.406 190.327L516.821 188.218C506.156 181.957 496.261 176.289 485.782 171.059C473.124 165.974 459.982 161.923 446.724 159.02L445.205 158.69C434.527 156.395 422.898 154.361 408.082 152.2L399.262 150.932C387.844 149.28 375.16 147.353 362.735 145.044C348.074 142.319 335.016 138.991 322.817 134.868C309.928 130.511 297.811 124.969 286.804 118.391L286.552 118.24C285.959 117.882 285.37 117.507 284.78 117.142L283.347 116.261C283.109 116.113 282.871 115.964 282.634 115.812C276.616 111.971 270.734 107.702 265.033 103.045L262.789 101.199C262.414 100.884 262.047 100.555 261.673 100.235C259.515 98.3869 257.378 96.4937 255.279 94.5327C245.902 85.779 236.831 75.9097 227.549 64.3602C219.3 54.0964 211.168 43.2287 203.545 32.885L201.919 30.6769C191.736 16.83 183.744 6.59491 176.005 -2.51123C167.314 -12.7396 157.689 -22.3621 147.335 -31.1629C136.434 -39.0193 125.174 -45.9545 114.57 -52.3888L3.73635 -118.673L4.04058 -136.007L122.284 -65.2907ZM3.70334 -230.786L3.48384 -218.073L3.4667 -218.083L3.0834 -196.132L3.08769 -196.129L2.4036 -156.842L2.40788 -156.84L2.10537 -139.499L2.10108 -139.501L1.71693 -117.551L1.71864 -117.55L1.37488 -97.9014L1.37831 -97.8993L1.07527 -80.5457L1.0667 -80.5509L0.683747 -58.5986L0.691461 -58.594L0.388436 -41.2637L0.385008 -41.2657L0 -19.3159L80.9464 29.0973C88.1294 33.4052 95.6646 37.9502 103.123 42.523C114.014 49.6399 124.763 57.244 135.044 65.1026C144.855 73.1387 154.716 81.6218 165.176 91.0315L167.873 93.5081C176.686 101.597 185.798 109.962 194.865 118.062C205.585 127.639 215.644 135.998 225.619 143.62C235.518 151.183 245.745 158.189 256.054 164.47L258.456 165.921C269.573 172.562 281.434 178.744 293.711 184.293C305.15 189.464 317.331 194.385 330.95 199.335C339.259 202.352 347.713 205.33 356.047 208.243L369.061 212.784C382.473 217.623 394.711 222.356 406.441 227.241C418.354 232.686 430.243 238.666 441.756 245.001L444.741 246.756C452.206 251.151 459.693 255.609 467.601 260.333L544.016 306.034L561.239 296.487L561.247 296.492L580.495 285.824L580.492 285.823L597.71 276.279L597.706 276.277L614.953 266.718L614.95 266.717L632.168 257.173L632.166 257.172L647.364 248.747L647.379 248.757L666.628 238.087L666.611 238.076L681.817 229.652L681.828 229.659L701.076 218.98L701.065 218.973L716.284 210.538L716.299 210.547L727.697 204.228L727.856 195.279L727.824 195.259L728.125 177.933L728.146 177.945L728.53 155.994L728.512 155.983L728.816 138.636L728.833 138.646L729.216 116.694L729.211 116.691L729.513 99.3567L729.517 99.3587L729.899 77.4073L729.888 77.4006L730.232 57.7653L600.198 -20.0055C597.316 -21.5921 594.439 -23.1909 591.565 -24.7938L581.905 -30.1847C577.418 -32.6846 572.864 -35.206 568.311 -37.6705L565.578 -39.1423C554.323 -45.1692 542.337 -51.111 529.956 -56.8026L526.346 -58.4456C517.587 -62.4092 508.079 -66.55 496.321 -71.5216L489.943 -74.214C480.337 -78.2814 468.5 -83.3916 456.849 -88.8591C444.232 -94.7723 432.802 -100.815 421.906 -107.332C411.472 -113.546 401.227 -120.418 390.594 -128.265L389.141 -129.341C379.151 -136.767 369.394 -144.489 361.439 -150.882L353.501 -157.279C345.681 -163.565 336.235 -171.065 326.651 -178.329C315.911 -186.473 305.109 -194.17 294.547 -201.206C289.394 -204.638 284.141 -208.035 278.961 -211.361L273.812 -214.661C269.764 -217.254 265.72 -219.845 261.662 -222.478L130.37 -301L95.9215 -281.904L95.9198 -281.905L42.2116 -252.134L42.2176 -252.131L27.0105 -243.702L27.0053 -243.705L3.70334 -230.786Z" fill="url(#paint0_linear_0_54)"/>
<defs>
<linearGradient id="paint0_linear_0_54" x1="3.8608" y1="29.1379" x2="311.153" y2="378.031" gradientUnits="userSpaceOnUse">
<stop stop-color="#5D5DFF" stop-opacity="0.01"/>
<stop offset="0.538482" stop-color="#5D5DFF" stop-opacity="0.32"/>
<stop offset="1" stop-color="#5D5DFF" stop-opacity="0.01"/>
</linearGradient>
</defs>
</svg>
